<?xml version="1.0" standalone="no"?>
<!DOCTYPE svg PUBLIC "-//W3C//DTD SVG 20010904//EN"
 "http://www.w3.org/TR/2001/REC-SVG-20010904/DTD/svg10.dtd">
<svg version="1.0" xmlns="http://www.w3.org/2000/svg"
 width="1070.000000pt" height="802.000000pt" viewBox="0 0 1070.000000 802.000000"
 preserveAspectRatio="xMidYMid meet">

<g transform="translate(0.000000,802.000000) scale(0.100000,-0.100000)"
fill="#000000" stroke="none">
<path d="M2 4008 l3 -4013 5 3133 c5 3091 5 3132 24 3097 36 -66 173 -112 302
-102 160 14 300 85 528 267 109 87 189 132 310 175 123 44 236 65 356 65 152
0 260 -28 357 -93 44 -29 49 -36 54 -82 4 -27 3 -114 -2 -193 -13 -234 13
-323 108 -375 160 -86 560 -41 658 74 46 55 45 103 -1 159 -37 43 -80 63 -218
99 -213 56 -241 87 -234 258 4 96 7 108 46 186 110 223 401 376 723 381 82 1
100 -2 118 -18 103 -93 319 -936 356 -1386 8 -101 -6 -141 -97 -280 -89 -135
-130 -214 -154 -296 -28 -94 -23 -304 8 -304 19 0 87 83 140 173 l53 90 7 -39
c4 -21 7 -97 8 -169 2 -254 32 -494 95 -740 64 -249 129 -404 248 -589 42 -65
80 -135 83 -154 5 -27 -4 -63 -44 -171 -142 -378 -160 -577 -82 -896 51 -205
135 -352 305 -533 72 -77 77 -84 71 -116 -17 -92 -137 -200 -366 -331 -74 -43
-155 -91 -178 -107 -73 -51 -107 -118 -128 -257 -12 -83 -141 -191 -279 -234
-58 -18 -93 -22 -200 -21 -145 0 -242 16 -430 71 -254 74 -403 114 -485 130
-116 23 -322 22 -410 -1 -160 -43 -329 -157 -467 -315 -164 -187 -199 -314
-110 -402 40 -41 111 -72 260 -115 145 -42 238 -45 367 -12 84 21 322 109 558
207 181 75 306 105 717 171 105 17 208 36 230 41 56 15 171 75 300 156 443
279 864 446 1368 542 155 30 705 99 882 110 98 7 216 7 340 1 105 -5 268 -13
363 -16 l174 -7 -6 -31 c-20 -98 -91 -181 -270 -315 -144 -108 -198 -158 -221
-208 -37 -77 9 -111 165 -125 277 -25 438 -69 716 -193 79 -36 210 -95 292
-131 180 -82 408 -160 522 -180 58 -10 160 -15 325 -15 132 -1 294 -2 360 -2
107 -2 125 1 163 21 79 42 112 125 94 235 -31 187 -198 400 -386 492 -146 72
-427 80 -1031 30 -263 -22 -455 -29 -455 -18 0 44 419 253 582 290 84 19 128
53 128 100 0 64 -23 159 -51 214 -58 116 -146 174 -384 254 -225 76 -313 130
-380 231 -32 48 -75 154 -75 184 0 5 48 48 106 96 124 102 201 191 250 288 29
58 34 79 34 135 -1 76 -13 108 -112 292 -36 68 -69 140 -73 160 -6 35 -5 37
43 67 94 58 258 305 358 540 38 92 39 93 69 88 17 -3 75 -29 130 -58 96 -50
103 -52 180 -53 126 0 185 38 342 222 53 63 113 127 134 144 49 38 116 69 155
69 50 0 120 -29 167 -70 64 -56 108 -149 197 -414 113 -336 187 -477 322 -608
158 -155 425 -225 747 -198 147 13 201 23 212 42 17 27 28 104 20 141 -24 105
-123 174 -420 291 -127 50 -244 110 -316 161 -133 95 -220 222 -232 341 l-6
57 160 -6 c262 -11 399 -44 601 -146 117 -59 195 -108 336 -210 215 -155 350
-220 459 -221 l58 0 22 48 c32 70 34 183 7 329 -31 165 -64 287 -107 390 -33
80 -45 96 -129 180 -79 78 -108 99 -196 143 -163 80 -226 83 -608 33 -246 -33
-456 -36 -545 -9 -100 30 -215 100 -215 130 0 18 532 364 638 414 34 17 34 17
62 -15 33 -37 48 -82 56 -173 9 -106 11 -112 35 -99 12 6 33 36 47 67 25 53
27 70 32 234 3 97 10 182 15 187 6 5 37 11 70 13 69 3 77 15 49 74 -12 24 -37
50 -76 75 -111 71 -277 111 -638 154 -287 34 -520 82 -735 152 -102 32 -254
105 -279 132 -18 20 -18 20 8 27 66 16 -1 75 -113 99 -76 17 -110 30 -101 38
3 2 22 15 44 30 l38 25 -28 19 c-47 31 -155 24 -313 -20 -74 -21 -154 -41
-177 -44 l-41 -5 -5 113 c-3 87 -9 125 -26 161 -29 67 -53 76 -150 55 -43 -9
-83 -17 -90 -17 -8 0 -12 20 -12 62 0 82 -25 137 -62 138 -33 0 -43 25 -63
175 -22 164 -37 205 -100 265 l-36 35 -19 -23 c-10 -12 -37 -80 -60 -150 -50
-150 -81 -211 -131 -256 -37 -34 -106 -55 -130 -40 -9 5 -10 34 -4 108 15 189
12 216 -34 312 -23 48 -39 89 -37 92 3 2 47 -16 98 -42 105 -53 115 -49 74 31
-29 58 -142 167 -211 205 -75 40 -184 67 -339 84 -77 8 -142 16 -144 18 -8 9
45 34 84 41 49 8 107 41 101 58 -8 27 -63 42 -162 45 -129 4 -219 -15 -338
-71 -111 -53 -180 -113 -276 -242 -71 -94 -111 -128 -167 -139 -37 -8 -40 -2
-50 140 l-7 91 51 109 c28 60 53 121 57 136 7 27 6 28 -26 22 -187 -33 -351
-142 -427 -281 -46 -84 -54 -92 -106 -102 -78 -14 -108 -57 -145 -206 -11 -42
-21 -79 -24 -81 -2 -2 -43 -11 -91 -19 -100 -18 -129 -30 -171 -75 -35 -37
-75 -60 -105 -60 -27 0 -103 71 -150 140 -52 77 -116 208 -195 400 -168 409
-247 568 -347 701 -97 129 -214 211 -324 226 -50 7 -54 -1 -29 -60 30 -71 27
-73 -90 -81 -149 -9 -208 -33 -241 -98 -25 -49 -20 -55 58 -63 l73 -7 -63 -55
c-34 -30 -62 -59 -62 -64 0 -5 23 -9 52 -9 l52 0 -30 -31 c-16 -17 -92 -73
-169 -124 -89 -58 -179 -129 -247 -193 -132 -124 -211 -167 -303 -167 -135 1
-211 56 -477 351 -161 178 -269 269 -393 329 -103 49 -179 65 -316 65 -296 -1
-489 -94 -489 -236 0 -46 19 -69 86 -102 63 -32 180 -51 414 -67 287 -19 344
-37 381 -119 35 -76 30 -86 -93 -210 -209 -209 -308 -233 -703 -175 -162 24
-259 21 -335 -12 -60 -26 -80 -54 -80 -112 0 -51 15 -91 65 -174 19 -32 35
-61 35 -64 0 -3 -37 -20 -83 -38 -110 -42 -107 -41 -144 -97 l-33 -49 0 838 0
837 5348 3 5347 2 -5352 3 -5353 2 2 -4012z m4487 2369 c13 -12 32 -40 42 -62
18 -41 47 -261 35 -272 -4 -4 -48 3 -99 15 -50 12 -119 25 -152 28 -81 8 -123
22 -135 44 -6 10 -10 46 -10 79 0 49 4 65 24 89 25 28 123 86 175 103 38 12
92 1 120 -24z m883 -59 c91 -65 192 -450 205 -783 7 -172 2 -185 -65 -185 -52
1 -165 42 -231 86 -89 59 -188 166 -224 242 -30 64 -31 72 -31 197 0 148 15
223 67 324 65 129 190 183 279 119z m-962 -338 c164 -33 289 -112 508 -317
184 -172 346 -305 417 -341 l40 -20 -40 -38 c-22 -22 -66 -60 -97 -86 -131
-110 -146 -265 -32 -337 60 -39 132 -53 261 -53 303 2 603 129 629 267 7 37 1
120 -12 163 -5 19 -3 22 19 22 56 0 200 57 386 152 268 136 428 177 650 165
157 -9 184 -21 109 -48 -23 -9 -43 -20 -45 -25 -2 -6 32 -40 75 -77 43 -36
124 -113 179 -171 84 -87 109 -121 148 -198 37 -75 47 -107 52 -164 6 -71 6
-71 -30 -109 -41 -43 -42 -47 -84 -307 -33 -207 -9 -188 -195 -161 -145 20
-212 10 -252 -38 -73 -86 -31 -201 134 -364 44 -44 80 -85 80 -93 0 -17 -95
-197 -187 -352 -78 -133 -167 -260 -182 -260 -9 0 -51 90 -51 109 0 30 -85 0
-94 -33 -21 -77 3 -183 71 -311 140 -267 147 -284 147 -365 1 -63 -4 -84 -29
-135 -42 -85 -174 -213 -316 -308 -252 -168 -539 -272 -854 -311 -151 -19
-478 -46 -484 -40 -3 2 8 55 24 117 22 86 28 137 29 219 l1 108 30 5 c17 3
122 18 235 35 212 30 322 57 447 109 165 68 402 221 460 297 26 35 26 36 17
142 -18 225 -12 332 28 507 47 207 95 513 158 1005 49 389 58 518 41 593 -5
21 -28 69 -52 108 -32 54 -44 84 -47 126 -5 59 3 73 44 73 12 0 32 8 45 19
l23 18 -30 16 c-47 24 -125 31 -197 17 -70 -13 -160 -59 -177 -89 -9 -18 -5
-22 36 -40 l46 -21 -3 -112 c-4 -99 -8 -120 -32 -169 -27 -57 -71 -96 -131
-119 -52 -19 -180 -23 -313 -10 -70 7 -180 13 -243 13 -99 0 -133 -5 -250 -36
-342 -89 -582 -68 -725 64 -64 59 -89 125 -90 230 0 85 1 87 58 200 49 97 57
122 57 168 0 48 -4 57 -34 86 -41 38 -99 55 -190 55 -60 0 -66 -2 -70 -22 -26
-122 -37 -188 -46 -273 -7 -55 -31 -217 -55 -360 -54 -323 -62 -396 -75 -665
-10 -220 -25 -318 -57 -389 -10 -22 -85 -124 -166 -227 l-149 -186 -32 31
c-102 99 -289 566 -335 835 -26 148 -30 200 -41 551 -5 165 -13 317 -16 338
-6 34 -9 37 -41 37 -25 0 -44 -10 -78 -41 -51 -47 -55 -39 -21 43 54 131 189
308 332 432 90 79 170 135 299 210 123 72 130 78 114 105 -12 20 -12 24 5 37
28 20 132 18 246 -6z m2878 -34 c80 -44 81 -165 2 -243 -36 -35 -104 -47 -224
-37 -132 10 -133 12 -91 102 29 62 105 140 167 171 48 23 111 27 146 7z m-898
-380 c18 -64 6 -110 -41 -161 -85 -93 -206 -111 -431 -66 -127 25 -132 29
-101 82 21 35 25 36 57 4 50 -50 94 -24 110 67 l11 63 185 31 c102 17 188 30
191 28 3 -2 12 -24 19 -48z m-552 -357 l43 -19 -18 -30 c-20 -35 -89 -82 -148
-101 -61 -19 -181 -17 -237 4 -46 18 -48 20 -48 58 0 39 1 41 64 70 108 51
253 58 344 18z m2914 -314 c-10 -108 -136 -314 -236 -383 -35 -24 -50 -27
-155 -32 -106 -5 -120 -8 -158 -34 -22 -15 -59 -53 -82 -84 -22 -31 -64 -90
-93 -131 -74 -104 -114 -134 -186 -139 -65 -5 -108 10 -185 61 l-48 32 4 70
c3 39 15 97 27 129 l23 59 26 -32 c20 -24 34 -32 52 -29 38 5 52 74 45 235
l-6 132 29 20 c48 34 117 60 260 96 211 53 369 72 571 71 l115 -1 -3 -40z
m-3858 -254 c83 -21 163 -42 179 -45 l27 -6 0 -160 c0 -183 3 -178 -85 -136
-71 33 -141 99 -196 184 -58 89 -104 202 -82 202 4 0 75 -18 157 -39z m1450
11 c17 -29 -121 -243 -238 -369 -55 -60 -122 -109 -129 -95 -4 8 22 402 28
418 3 11 62 24 200 44 72 11 133 11 139 2z m-548 -24 c63 -7 94 -15 94 -24 0
-38 -143 -171 -174 -161 -23 8 -49 70 -54 132 -6 76 -16 72 134 53z m-382
-140 c-3 -46 -8 -85 -10 -86 -8 -10 -74 22 -97 46 -24 25 -57 89 -57 112 0 6
33 10 86 10 l85 0 -7 -82z m-341 -565 c102 -37 134 -120 82 -209 -30 -51 -69
-79 -226 -164 -176 -94 -252 -172 -272 -277 -8 -41 7 -43 82 -8 56 26 98 57
191 139 131 116 237 161 365 154 103 -5 175 -38 256 -115 186 -177 304 -516
286 -823 -10 -171 -47 -240 -127 -240 -62 0 -77 21 -101 140 -22 111 -34 140
-74 166 -37 24 -77 10 -148 -52 -34 -30 -65 -54 -68 -54 -13 0 -21 37 -29 143
-12 149 -53 217 -88 144 -29 -61 -12 -212 58 -513 37 -154 50 -332 30 -415
-42 -183 -174 -311 -370 -360 -75 -19 -258 -17 -342 4 -235 58 -416 182 -543
373 -64 95 -127 246 -151 364 -25 117 -25 388 -1 520 37 200 144 456 246 592
113 149 306 327 446 411 158 94 366 128 498 80z m1269 -872 c64 -71 111 -172
116 -249 4 -54 1 -68 -21 -101 -14 -21 -46 -52 -72 -69 -48 -31 -149 -61 -163
-48 -13 13 -14 236 -2 320 16 110 53 196 84 196 8 0 34 -22 58 -49z m-322
-423 c23 -25 40 -78 40 -123 0 -29 -4 -32 -66 -52 l-67 -22 5 72 c6 80 29 147
52 147 8 0 24 -10 36 -22z m-506 -110 c9 -42 16 -100 16 -128 l0 -51 -77 3
-78 3 3 70 c4 87 30 148 74 174 18 12 36 17 39 13 4 -4 15 -42 23 -84z m846
-671 c0 -41 -158 -209 -283 -301 -303 -223 -619 -275 -892 -147 -76 36 -145
84 -145 100 0 5 28 28 63 51 34 24 94 70 134 102 69 56 74 58 130 58 77 0 382
27 458 41 33 6 116 24 185 41 147 35 296 66 328 67 12 1 22 -5 22 -12z"/>
<path d="M5455 5587 c-50 -43 -43 -151 11 -176 38 -17 51 -14 73 18 35 49 25
135 -18 168 -23 18 -37 16 -66 -10z"/>
</g>
</svg>
